<?xml version="1.0" encoding="UTF-8" standalone="no"?>
<!-- Created with Inkscape (http://www.inkscape.org/) -->

<svg
   version="1.1"
   id="svg1"
   width="143.09119"
   height="159.02234"
   viewBox="0 0 143.09119 159.02234"
   sodipodi:docname="phoenix_chat.png"
   xmlns:inkscape="http://www.inkscape.org/namespaces/inkscape"
   xmlns:sodipodi="http://sodipodi.sourceforge.net/DTD/sodipodi-0.dtd"
   xmlns="http://www.w3.org/2000/svg"
   xmlns:svg="http://www.w3.org/2000/svg">
  <defs
     id="defs1" />
  <sodipodi:namedview
     id="namedview1"
     pagecolor="#505050"
     bordercolor="#eeeeee"
     borderopacity="1"
     inkscape:showpageshadow="0"
     inkscape:pageopacity="0"
     inkscape:pagecheckerboard="0"
     inkscape:deskcolor="#505050" />
  <g
     inkscape:groupmode="layer"
     inkscape:label="Image"
     id="g1"
     transform="translate(-676.08154,-1209.4712)">
    <path
       style="fill:none;fill-opacity:1;stroke:#9fa6bc;stroke-width:17.1449;stroke-linecap:round;stroke-linejoin:round;stroke-dasharray:none;stroke-opacity:1"
       d="m 768.80069,1259.6493 c 0,0 -30.91222,27.3878 -41.98051,41.9806 -3.14989,4.154 -6.77948,8.3704 -5.67975,14.5696 0.77519,4.3707 4.00004,8.641 9.6308,9.3844 3.7414,0.4898 8.52496,0.1224 13.58199,-4.939 0,0 45.18453,-39.4971 60.74823,-60.2547 6.26586,-8.3569 9.63081,-18.5202 -3.70417,-31.1144 -7.59362,-7.1715 -14.56965,-17.2858 -34.07828,-6.9143 0,0 -48.60887,33.4486 -72.84852,69.8852 -13.8459,20.8128 -12.84108,35.5599 1.72858,50.8703 0,0 16.05134,17.2858 32.10281,16.7923 0,0 13.08809,0.747 26.91684,-10.3715 11.35951,-8.8909 54.5747,-50.3767 54.5747,-50.3767"
       id="path6"
       sodipodi:nodetypes="csssssscscccc" />
  </g>
</svg>
